<svg id="Layer_1" data-name="Layer 1" xmlns="http://www.w3.org/2000/svg" viewBox="0 0 286.39 45.04"><defs><style>.cls-1{fill:#0f52ba;}</style></defs><title>Logo Website</title><path d="M77.63,26.44A10.72,10.72,0,0,1,82,30.64a12.34,12.34,0,0,1,1.55,6.24A12.37,12.37,0,0,1,82,43.1a10.55,10.55,0,0,1-4.39,4.21A13.86,13.86,0,0,1,71,48.81H62.09V24.94H71A13.85,13.85,0,0,1,77.63,26.44ZM75.79,42a6.8,6.8,0,0,0,1.84-5.1,6.94,6.94,0,0,0-1.84-5.14,6.94,6.94,0,0,0-5.13-1.83H67.91V43.78h2.75A7,7,0,0,0,75.79,42Z" transform="translate(-6.7 -15.04)"/><path d="M90.43,47.89a8.67,8.67,0,0,1-3.5-3.4,10.14,10.14,0,0,1-1.28-5.17A10,10,0,0,1,87,34.17a8.77,8.77,0,0,1,3.53-3.41,11.25,11.25,0,0,1,10.07,0,8.77,8.77,0,0,1,3.53,3.41,10.12,10.12,0,0,1,1.29,5.15,10,10,0,0,1-1.31,5.16,8.85,8.85,0,0,1-3.56,3.41,10.63,10.63,0,0,1-5,1.19A10.43,10.43,0,0,1,90.43,47.89Zm7.86-5.06a4.9,4.9,0,0,0,1.17-3.51,5,5,0,0,0-1.14-3.5,3.87,3.87,0,0,0-5.63,0,5,5,0,0,0-1.12,3.51,5.06,5.06,0,0,0,1.11,3.51,3.58,3.58,0,0,0,2.77,1.22A3.82,3.82,0,0,0,98.29,42.83Z" transform="translate(-6.7 -15.04)"/><path d="M120.06,48.81l-5.78-8v8h-5.81V23.65h5.81V37.56L120,29.84h7.17l-7.89,9.52,8,9.45Z" transform="translate(-6.7 -15.04)"/><path d="M148.21,29.84v19H142.4V46.23a6.37,6.37,0,0,1-2.4,2,7.3,7.3,0,0,1-3.35.76,7.55,7.55,0,0,1-3.84-1,6.57,6.57,0,0,1-2.58-2.81,9.55,9.55,0,0,1-.92-4.32V29.84h5.78v10.3a4.15,4.15,0,0,0,1,3,3.45,3.45,0,0,0,2.65,1,3.49,3.49,0,0,0,2.68-1,4.15,4.15,0,0,0,1-3V29.84Z" transform="translate(-6.7 -15.04)"/><path d="M169.28,31.79a8.46,8.46,0,0,1,2,5.94V48.81h-5.78V38.51a4.15,4.15,0,0,0-1-3,3.87,3.87,0,0,0-5.3,0,4.15,4.15,0,0,0-1,3v10.3H152.4v-19h5.81v2.51a6.11,6.11,0,0,1,2.38-2,7.55,7.55,0,0,1,3.37-.74A6.89,6.89,0,0,1,169.28,31.79Z" transform="translate(-6.7 -15.04)"/><path d="M198.06,26.44a10.78,10.78,0,0,1,4.37,4.2A12.34,12.34,0,0,1,204,36.88a12.37,12.37,0,0,1-1.54,6.22A10.67,10.67,0,0,1,198,47.31a13.88,13.88,0,0,1-6.58,1.5h-8.94V24.94h8.94A13.85,13.85,0,0,1,198.06,26.44ZM196.22,42a6.8,6.8,0,0,0,1.84-5.1,6.94,6.94,0,0,0-1.84-5.14,6.94,6.94,0,0,0-5.13-1.83h-2.76V43.78h2.76A7,7,0,0,0,196.22,42Z" transform="translate(-6.7 -15.04)"/><path d="M207.66,27a3.08,3.08,0,0,1,0-4.49,3.54,3.54,0,0,1,2.5-.9,3.49,3.49,0,0,1,2.47.9,3.1,3.1,0,0,1,0,4.49,3.49,3.49,0,0,1-2.47.9A3.54,3.54,0,0,1,207.66,27Zm5.39,2.87v19h-5.81v-19Z" transform="translate(-6.7 -15.04)"/><path d="M228,30.38a6,6,0,0,1,2.33,2.14V29.84h5.82V48.78a10.7,10.7,0,0,1-1,4.74,7.91,7.91,0,0,1-3.16,3.38,10.23,10.23,0,0,1-5.29,1.26,11,11,0,0,1-6.83-2,7.44,7.44,0,0,1-3-5.39h5.74a2.74,2.74,0,0,0,1.29,1.72,4.71,4.71,0,0,0,2.52.63,4,4,0,0,0,2.87-1,4.42,4.42,0,0,0,1.07-3.31V46.09A6.51,6.51,0,0,1,228,48.25a7.05,7.05,0,0,1-3.5.83,7.77,7.77,0,0,1-4.25-1.2,8.31,8.31,0,0,1-3-3.44,11.38,11.38,0,0,1-1.11-5.15,11.27,11.27,0,0,1,1.11-5.13,8.13,8.13,0,0,1,3-3.4,7.76,7.76,0,0,1,4.25-1.19A7.3,7.3,0,0,1,228,30.38Zm1.13,5.51a3.94,3.94,0,0,0-3-1.26,4,4,0,0,0-2.94,1.24,4.72,4.72,0,0,0-1.2,3.42,4.83,4.83,0,0,0,1.2,3.45,4,4,0,0,0,5.89,0,4.77,4.77,0,0,0,1.2-3.44A4.76,4.76,0,0,0,229.12,35.89Z" transform="translate(-6.7 -15.04)"/><path d="M240.78,27a3.08,3.08,0,0,1,0-4.49,3.52,3.52,0,0,1,2.5-.9,3.47,3.47,0,0,1,2.46.9,3.08,3.08,0,0,1,0,4.49,3.47,3.47,0,0,1-2.46.9A3.52,3.52,0,0,1,240.78,27Zm5.39,2.87v19h-5.82v-19Z" transform="translate(-6.7 -15.04)"/><path d="M261,43.88v4.93h-3a7.25,7.25,0,0,1-4.93-1.55q-1.77-1.55-1.77-5V34.67H249V29.84h2.31V25.21h5.82v4.63h3.8v4.83h-3.8v7.61a1.61,1.61,0,0,0,.4,1.23,2,2,0,0,0,1.36.37Z" transform="translate(-6.7 -15.04)"/><path d="M264.14,34.16a8.13,8.13,0,0,1,3-3.4,7.76,7.76,0,0,1,4.25-1.19,7.3,7.3,0,0,1,3.51.81,6,6,0,0,1,2.33,2.14V29.84h5.82v19h-5.82V46.13a6.29,6.29,0,0,1-2.36,2.14,7.35,7.35,0,0,1-3.52.81,7.71,7.71,0,0,1-4.21-1.2,8.31,8.31,0,0,1-3-3.44A11.38,11.38,0,0,1,263,39.29,11.27,11.27,0,0,1,264.14,34.16ZM276,35.89a3.94,3.94,0,0,0-3-1.26,4,4,0,0,0-2.94,1.24,4.72,4.72,0,0,0-1.2,3.42,4.83,4.83,0,0,0,1.2,3.45,4,4,0,0,0,5.89,0,4.77,4.77,0,0,0,1.2-3.44A4.76,4.76,0,0,0,276,35.89Z" transform="translate(-6.7 -15.04)"/><path d="M293.09,23.65V48.81h-5.82V23.65Z" transform="translate(-6.7 -15.04)"/><path class="cls-1" d="M55,38.06c0,12.16-10.9,22-24.36,22A25.87,25.87,0,0,1,15,55a1.26,1.26,0,0,1,.51-2.23c10.84-2.23,18.92-11,18.92-21.46a20.57,20.57,0,0,0-4.83-13.15,1.26,1.26,0,0,1,1-2.06h0C44.1,16.06,55,25.91,55,38.06Z" transform="translate(-6.7 -15.04)"/><path class="cls-1" d="M31.72,31.23c0,8.94-6.71,16.19-15,16.19A14.31,14.31,0,0,1,7,43.51.86.86,0,0,1,7.37,42c6.7-1.61,11.72-8.08,11.72-15.81A17,17,0,0,0,16,16.4.86.86,0,0,1,16.72,15h0C25,15,31.72,22.29,31.72,31.23Z" transform="translate(-6.7 -15.04)"/></svg>