<svg id="Capa_1" enable-background="new 0 0 512 512" height="512" viewBox="0 0 512 512" width="512" xmlns="http://www.w3.org/2000/svg"><g><path d="m512 256c0 141.385-114.615 256-256 256s-256-114.615-256-256c0-89.499 45.927-168.271 115.5-214.034.677-.445 1.636 1.278 2.317.839 3.569-2.299 7.198-4.512 10.885-6.635.69-.398 1.103-2.958 1.798-3.349 37.084-20.898 79.899-32.821 125.5-32.821 141.385 0 256 114.615 256 256z" fill="#3d4ec6"/><path d="m445.506 140.992v242.002c0 5.523-4.477 10-10 10h-364.269c-5.523 0-10-4.477-10-10v-242.002c0-5.523 4.477-10 10-10h364.269c5.523 0 10 4.477 10 10z" fill="#2b3894"/><path d="m512 96.5v220c0 5.523-4.477 10-10 10h-332c-5.523 0-10-4.477-10-10v-220c0-5.523 4.477-10 10-10h332c5.523 0 10 4.477 10 10z" fill="#e9cc5a"/><path d="m195.086 326.5h-25.086c-5.523 0-10-4.477-10-10v-220c0-5.523 4.477-10 10-10h25.086c-5.523 0-10 4.477-10 10v220c0 5.523 4.477 10 10 10z" fill="#eac23f"/><path d="m512 56.5v40h-352v-40c0-5.523 4.477-10 10-10h332c5.523 0 10 4.477 10 10z" fill="#72d1fb"/><path d="m195.086 46.5c-5.523 0-10 4.477-10 10v40h-25.086v-40c0-5.523 4.477-10 10-10z" fill="#40c1fa"/><path d="m220 71.5c0 4.142-3.358 7.5-7.5 7.5s-7.5-3.358-7.5-7.5 3.358-7.5 7.5-7.5 7.5 3.358 7.5 7.5zm-32.5-7.5c-4.142 0-7.5 3.358-7.5 7.5s3.358 7.5 7.5 7.5 7.5-3.358 7.5-7.5-3.358-7.5-7.5-7.5zm50 0c-4.142 0-7.5 3.358-7.5 7.5s3.358 7.5 7.5 7.5 7.5-3.358 7.5-7.5-3.358-7.5-7.5-7.5z" fill="#07a9f0"/><path d="m219 421.473v34.027c0 5.523-4.477 10-10 10h-172c-5.523 0-10-4.477-10-10v-224.256c0-3.557 1.889-6.846 4.961-8.638l41.667-24.306c2.951 98.48 61.521 182.983 145.372 223.173z" fill="#e5554e"/><path d="m219 231.244v202.629c-89.386-38.873-152.258-127.277-153.964-230.56l52.925-30.873c3.114-1.816 6.964-1.816 10.077 0l86 50.167c3.073 1.791 4.962 5.08 4.962 8.637z" fill="#f76c57"/><path d="m130.5 32.821v183.041c0 4.142-3.358 7.5-7.5 7.5s-7.5-3.358-7.5-7.5v-173.896c4.886-3.214 9.888-6.264 15-9.145z" fill="#edd578"/><path d="m236 178.665c0-4.142 3.358-7.5 7.5-7.5h185c4.142 0 7.5 3.358 7.5 7.5s-3.358 7.5-7.5 7.5h-185c-4.142 0-7.5-3.358-7.5-7.5zm192.5 27.5h-185c-4.142 0-7.5 3.358-7.5 7.5s3.358 7.5 7.5 7.5h185c4.142 0 7.5-3.358 7.5-7.5s-3.358-7.5-7.5-7.5zm-185-55h95c4.142 0 7.5-3.358 7.5-7.5s-3.358-7.5-7.5-7.5h-95c-4.142 0-7.5 3.358-7.5 7.5s3.358 7.5 7.5 7.5z" fill="#f1de96"/><path d="m244.874 405.132-13.464 12.694c-.692.652-.998 1.615-.811 2.547l3.648 18.142c.461 2.295-1.969 4.083-4.022 2.959l-16.233-8.883c-.834-.457-1.844-.45-2.673.016l-16.126 9.075c-2.04 1.148-4.491-.611-4.057-2.911l3.432-18.184c.176-.934-.142-1.893-.841-2.537l-13.615-12.533c-1.722-1.585-.807-4.46 1.515-4.758l18.354-2.355c.943-.121 1.757-.72 2.153-1.584l7.712-16.82c.975-2.128 3.992-2.146 4.993-.03l7.912 16.728c.406.859 1.227 1.448 2.172 1.558l18.381 2.137c2.324.27 3.273 3.133 1.57 4.739z" fill="#f1de96"/><path d="m324.958 384.916-9.701 9.145c-.498.47-.719 1.164-.584 1.835l2.628 13.07c.332 1.653-1.418 2.941-2.898 2.132l-11.695-6.4c-.601-.329-1.329-.324-1.926.011l-11.618 6.538c-1.47.827-3.236-.44-2.923-2.097l2.472-13.101c.127-.673-.102-1.364-.606-1.828l-9.809-9.029c-1.241-1.142-.581-3.213 1.091-3.428l13.223-1.697c.679-.087 1.266-.518 1.551-1.141l5.556-12.119c.703-1.533 2.876-1.546 3.597-.021l5.7 12.052c.293.619.884 1.043 1.565 1.123l13.243 1.54c1.678.195 2.361 2.259 1.134 3.415z" fill="#717ed6"/><path d="m183.15 328.836-25.002 23.571c-1.284 1.211-1.854 2.999-1.506 4.729l6.774 33.687c.857 4.261-3.656 7.581-7.469 5.494l-30.143-16.494c-1.549-.847-3.425-.836-4.963.03l-29.945 16.852c-3.788 2.132-8.339-1.134-7.533-5.405l6.372-33.765c.327-1.735-.263-3.515-1.562-4.711l-25.281-23.272c-3.198-2.944-1.498-8.282 2.813-8.835l34.082-4.374c1.751-.225 3.262-1.336 3.998-2.941l14.321-31.235c1.812-3.951 7.413-3.984 9.272-.055l14.691 31.062c.755 1.596 2.279 2.689 4.032 2.893l34.131 3.968c4.318.502 6.081 5.819 2.918 8.801z" fill="#eac23f"/><path d="m183.15 328.777-25.002 23.571c-1.284 1.211-1.854 2.999-1.506 4.729l2.744 13.648c-27.301-8.962-49.735-28.656-62.314-54.093l2.715-.348c1.751-.225 3.262-1.336 3.998-2.941l14.321-31.235c1.812-3.951 7.413-3.984 9.272-.055l14.691 31.062c.755 1.596 2.279 2.689 4.032 2.893l34.131 3.968c4.318.502 6.081 5.819 2.918 8.801z" fill="#e9cc5a"/><path d="m409.196 278.261 1.824-9.666c.094-.497-.075-1.006-.447-1.349l-7.237-6.662c-.915-.843-.429-2.371.805-2.529l9.757-1.252c.501-.064.934-.383 1.144-.842l4.1-8.942c.519-1.131 2.122-1.141 2.654-.016l4.206 8.892c.216.457.652.77 1.154.828l9.771 1.136c1.236.144 1.741 1.666.835 2.519l-7.157 6.748c-.368.347-.531.858-.431 1.354l1.939 9.644c.245 1.22-1.047 2.17-2.138 1.573l-8.629-4.722c-.443-.243-.98-.239-1.421.008l-8.572 4.824c-1.085.611-2.388-.324-2.157-1.546zm-39.62 1.547 8.572-4.824c.44-.248.977-.251 1.421-.008l8.629 4.722c1.091.597 2.383-.353 2.138-1.573l-1.939-9.644c-.1-.495.063-1.007.431-1.354l7.157-6.748c.905-.854.401-2.376-.835-2.519l-9.771-1.136c-.502-.058-.938-.371-1.154-.828l-4.206-8.892c-.532-1.125-2.136-1.115-2.654.016l-4.1 8.942c-.211.459-.643.778-1.144.842l-9.757 1.252c-1.234.158-1.721 1.686-.805 2.529l7.237 6.662c.372.342.541.852.447 1.349l-1.824 9.666c-.23 1.221 1.073 2.156 2.157 1.546zm-41.776 0 8.572-4.824c.44-.248.977-.251 1.421-.008l8.629 4.722c1.091.597 2.383-.353 2.138-1.573l-1.939-9.644c-.1-.495.063-1.007.431-1.354l7.157-6.748c.905-.854.401-2.376-.835-2.519l-9.771-1.136c-.502-.058-.938-.371-1.154-.828l-4.206-8.892c-.532-1.125-2.136-1.115-2.654.016l-4.1 8.942c-.211.459-.643.778-1.144.842l-9.757 1.252c-1.234.158-1.721 1.686-.805 2.529l7.237 6.662c.372.342.541.852.447 1.349l-1.824 9.666c-.23 1.221 1.073 2.156 2.157 1.546zm-41.776 0 8.572-4.824c.44-.248.977-.251 1.421-.008l8.629 4.722c1.092.597 2.383-.353 2.138-1.573l-1.939-9.644c-.1-.495.063-1.007.431-1.354l7.157-6.748c.905-.854.401-2.376-.835-2.519l-9.771-1.136c-.502-.058-.938-.371-1.154-.828l-4.206-8.892c-.532-1.125-2.136-1.115-2.654.016l-4.1 8.942c-.211.459-.643.778-1.144.842l-9.757 1.252c-1.234.158-1.721 1.686-.805 2.529l7.237 6.662c.372.342.541.852.447 1.349l-1.824 9.666c-.23 1.221 1.073 2.156 2.157 1.546zm-41.776 0 8.572-4.824c.44-.248.977-.251 1.421-.008l8.629 4.722c1.091.597 2.383-.353 2.138-1.573l-1.939-9.644c-.1-.495.063-1.007.431-1.354l7.157-6.748c.905-.854.401-2.376-.835-2.519l-9.771-1.136c-.502-.058-.938-.371-1.154-.828l-4.206-8.892c-.532-1.125-2.136-1.115-2.654.016l-4.1 8.942c-.211.459-.643.778-1.144.842l-9.757 1.252c-1.234.158-1.721 1.686-.805 2.529l7.237 6.662c.372.342.541.852.447 1.349l-1.824 9.666c-.23 1.221 1.073 2.156 2.157 1.546zm-158.643-16.987h-8.75v-8.75c0-2.761-2.239-5-5-5s-5 2.239-5 5v8.75h-8.75c-2.761 0-5 2.239-5 5 0 2.762 2.239 5 5 5h8.75v8.75c0 2.762 2.239 5 5 5s5-2.238 5-5v-8.75h8.75c2.761 0 5-2.238 5-5 0-2.761-2.238-5-5-5zm305.632 179.221c0 2.761-2.239 5-5 5h-8.75v8.75c0 2.761-2.239 5-5 5s-5-2.239-5-5v-8.75h-8.75c-2.761 0-5-2.239-5-5 0-2.762 2.239-5 5-5h8.75v-8.75c0-2.762 2.239-5 5-5s5 2.238 5 5v8.75h8.75c2.761 0 5 2.239 5 5z" fill="#fff5f5"/></g></svg>