<svg id="Capa_1" enable-background="new 0 0 512 512" height="512" viewBox="0 0 512 512" width="512" xmlns="http://www.w3.org/2000/svg"><g><path d="m0 256c0-141.295 114.469-255.854 255.729-256 139.609-.144 254.216 112.602 256.243 252.196 1.197 82.448-36.588 156.118-96.109 203.765-2.521 2.018-6.082 2.105-8.686.196-42.369-31.064-94.648-49.408-151.21-49.408-56.524 0-108.77 18.319-151.124 49.345-2.636 1.931-6.24 1.844-8.79-.199-58.556-46.915-96.053-119.026-96.053-199.895z" fill="#e5554e"/><path d="m30 140v-70c0-5.523 4.477-10 10-10h170c5.523 0 10 4.477 10 10v70c0 5.523-4.477 10-10 10h-170c-5.523 0-10-4.477-10-10zm-10 97.5c0-4.142 3.358-7.5 7.5-7.5h75c4.142 0 7.5 3.358 7.5 7.5s-3.358 7.5-7.5 7.5h-75c-4.142 0-7.5-3.358-7.5-7.5zm82.5 23.75h-75c-4.142 0-7.5 3.358-7.5 7.5s3.358 7.5 7.5 7.5h75c4.142 0 7.5-3.358 7.5-7.5s-3.358-7.5-7.5-7.5zm0 31.25h-75c-4.142 0-7.5 3.358-7.5 7.5s3.358 7.5 7.5 7.5h75c4.142 0 7.5-3.358 7.5-7.5s-3.358-7.5-7.5-7.5z" fill="#f87b67"/><path d="m440 110v140c0 5.523-4.477 10-10 10h-168.644c-5.523 0-10-4.477-10-10v-140c0-5.523 4.477-10 10-10h168.644c5.523 0 10 4.477 10 10z" fill="#e9cc5a"/><path d="m82.222 190v-50c0-5.523 4.477-10 10-10h127.778c5.523 0 10 4.477 10 10v50c0 5.523-4.477 10-10 10h-127.778c-5.523 0-10-4.477-10-10z" fill="#eac23f"/><path d="m382.552 127.361v118.788c0 59.261-44.824 108.052-102.417 114.319-57.593-6.268-102.417-55.059-102.417-114.319v-118.788c0-59.26 44.824-108.051 102.417-114.319 57.593 6.268 102.417 55.059 102.417 114.319z" fill="#61362b"/><path d="m297.234 357.281c-9.469 2.523-19.418 3.868-29.682 3.868h-23.104c-63.513 0-115-51.487-115-115v-118.788c0-63.513 51.487-115 115-115h23.104c10.263 0 20.213 1.345 29.682 3.868-49.127 13.087-85.318 57.883-85.318 111.132l15.978 118.788c0 53.249 20.213 98.045 69.34 111.132z" fill="#4c2c21"/><path d="m207.234 313.511c-38.66 0-70 31.34-70 70v87.047c0 5.613-6.1 9.046-10.937 6.199-10.613-6.249-20.736-13.241-30.297-20.905v-72.341c0-38.66 31.34-70 70-70z" fill="#2b3894"/><path d="m416 383.511v72.341c-43.827 35.133-99.459 56.148-160 56.148-47.457 0-91.897-12.913-130-35.417v-93.072c0-38.66 31.34-70 70-70h150c38.66 0 70 31.34 70 70z" fill="#3d4ec6"/><path d="m171 423.606v73.943c-5.075-1.786-10.077-3.727-15-5.818v-68.125c0-4.142 3.358-7.5 7.5-7.5s7.5 3.358 7.5 7.5zm177.5-7.5c-4.142 0-7.5 3.358-7.5 7.5v73.944c5.075-1.786 10.077-3.728 15-5.818v-68.126c0-4.142-3.358-7.5-7.5-7.5z" fill="#2b3894"/><path d="m344.292 313.511-84.931 99.004c-1.767 2.06-4.955 2.06-6.722 0l-84.931-99.004z" fill="#5766ce"/><path d="m324.279 307.522-65.692 76.577c-1.36 1.586-3.814 1.586-5.175 0l-65.692-76.577c-1.897-2.211-.326-5.628 2.587-5.628h131.383c2.915 0 4.486 3.417 2.589 5.628z" fill="#fff5f5"/><path d="m171 188.511v10c0 13.807-11.193 25-25 25s-25-11.193-25-25v-10c0-13.807 11.193-25 25-25s25 11.193 25 25z" fill="#ffbeaa"/><path d="m136 183.511v20c0 8.178 3.927 15.438 9.998 20-13.806-.001-24.998-11.194-24.998-25v-10c0-13.807 11.192-24.999 24.998-25-6.071 4.561-9.998 11.822-9.998 20zm230-20v-20c0-60.751-49.249-110-110-110s-110 49.249-110 110v40c0 50.351 33.83 92.8 80 105.859v34.141c0 16.568 13.431 30 30 30s30-13.432 30-30v-34.141c33.586-9.499 60.641-34.551 72.895-66.883 2.252.667 4.637 1.024 7.105 1.024 13.807 0 25-11.193 25-25v-10c0-13.807-11.193-25-25-25z" fill="#faa68e"/><path d="m366 143.511v40c0 50.792-34.425 93.543-81.216 106.195-9.023 2.439-18.545 2.439-27.568 0-46.791-12.652-81.216-55.403-81.216-106.195v-40c0-55.664 41.345-101.669 95-108.985 53.655 7.315 95 53.321 95 108.985z" fill="#ffbeaa"/><path d="m234.446 145.708c2.929 2.929 2.928 7.678 0 10.606-5.361 5.36-12.403 8.041-19.445 8.041s-14.084-2.681-19.445-8.041c-2.929-2.929-2.929-7.678 0-10.606 2.93-2.93 7.677-2.929 10.607-.001 4.874 4.873 12.804 4.873 17.678 0 2.927-2.929 7.676-2.928 10.605.001zm82 0c-2.929-2.929-7.678-2.93-10.607-.001-4.874 4.873-12.804 4.873-17.678 0-2.93-2.928-7.677-2.929-10.607.001-2.929 2.929-2.928 7.678 0 10.606 5.361 5.36 12.403 8.041 19.445 8.041s14.084-2.681 19.445-8.041c2.93-2.929 2.931-7.678.002-10.606z" fill="#b2705b"/><path d="m241.5 190.242c-2.929-2.93-2.929-7.678 0-10.607 2.929-2.928 7.678-2.928 10.606 0 1.042 1.042 2.424 1.616 3.893 1.616s2.851-.574 3.893-1.616c2.929-2.928 7.678-2.928 10.606 0 2.929 2.93 2.929 7.678 0 10.607-3.875 3.875-9.024 6.009-14.5 6.009s-10.623-2.134-14.498-6.009zm44.803 27.601c-2.929-2.928-7.678-2.928-10.606 0-10.861 10.861-28.532 10.861-39.394 0-2.929-2.928-7.678-2.928-10.606 0-2.929 2.93-2.929 7.678 0 10.607 8.354 8.354 19.329 12.531 30.303 12.531s21.949-4.177 30.303-12.531c2.929-2.929 2.929-7.678 0-10.607z" fill="#e09380"/><path d="m263.146 83.511h-111.627c19.504-35.748 57.429-60 101.019-60h6.924c1.816 0 3.623.042 5.418.125 38.768 1.798 37.075 59.875-1.734 59.875z" fill="#4c2c21"/><path d="m360.481 83.511h-167.123c16.848-30.88 38.791-65.191 103.876-67.281 28.532 17.919 46.399 36.4 63.247 67.281z" fill="#61362b"/><path d="m512 350.387c0 18.85-15.281 34.131-34.131 34.131h-94.525c-18.85 0-34.131-15.281-34.131-34.131s15.281-34.131 34.131-34.131v-42.664l63.996 42.664h30.529c18.85 0 34.131 15.281 34.131 34.131z" fill="#b4e7fd"/><path d="m512 350.387c0 18.85-15.281 34.131-34.131 34.131h-45.971c-18.85 0-34.131-15.281-34.131-34.131 0-18.85 15.281-34.131 34.131-34.131h45.971c18.85 0 34.131 15.281 34.131 34.131z" fill="#d5f1fe"/><path d="m407.63 350.202c0 4.142-3.358 7.5-7.5 7.5s-7.5-3.358-7.5-7.5 3.358-7.5 7.5-7.5 7.5 3.358 7.5 7.5zm23.192-7.5c-4.142 0-7.5 3.358-7.5 7.5s3.358 7.5 7.5 7.5 7.5-3.358 7.5-7.5-3.358-7.5-7.5-7.5zm30.26 0c-4.142 0-7.5 3.358-7.5 7.5s3.358 7.5 7.5 7.5 7.5-3.358 7.5-7.5-3.357-7.5-7.5-7.5z" fill="#738c96"/><path d="m498.75 270c0 2.761-2.239 5-5 5h-8.75v8.75c0 2.761-2.239 5-5 5s-5-2.239-5-5v-8.75h-8.75c-2.761 0-5-2.239-5-5s2.239-5 5-5h8.75v-8.75c0-2.762 2.239-5 5-5s5 2.238 5 5v8.75h8.75c2.761 0 5 2.239 5 5zm-416.25 76.25h-8.75v-8.75c0-2.762-2.239-5-5-5s-5 2.238-5 5v8.75h-8.75c-2.761 0-5 2.238-5 5 0 2.761 2.239 5 5 5h8.75v8.75c0 2.761 2.239 5 5 5s5-2.239 5-5v-8.75h8.75c2.761 0 5-2.239 5-5 0-2.762-2.239-5-5-5z" fill="#fff5f5"/></g></svg>