<svg xmlns="http://www.w3.org/2000/svg" viewBox="0 0 291.3 54.38"><defs><style>.cls-1{font-size:34px;font-family:Poppins-Bold, Poppins;font-weight:700;}.cls-2{fill:#0f52ba;}</style></defs><title>logo-dkn</title><g id="Layer_2" data-name="Layer 2"><g id="Layer_1-2" data-name="Layer 1"><text class="cls-1" transform="translate(53.29 33.78)">Dokun Digital</text><path class="cls-2" d="M48.3,23C48.3,35.18,37.4,45,24,45a25.83,25.83,0,0,1-15.6-5.11,1.26,1.26,0,0,1,.51-2.24c10.83-2.23,18.91-11,18.91-21.45A20.59,20.59,0,0,0,22.94,3.08a1.26,1.26,0,0,1,1-2.06h0C37.4,1,48.3,10.87,48.3,23Z"/><path class="cls-2" d="M25,16.19c0,9-6.71,16.2-15,16.2A14.31,14.31,0,0,1,.28,28.48.86.86,0,0,1,.67,27C7.38,25.4,12.39,18.93,12.39,11.2A17,17,0,0,0,9.31,1.36.87.87,0,0,1,10,0h0C18.31,0,25,7.25,25,16.19Z"/></g></g></svg>