<svg id="Layer_1" data-name="Layer 1" xmlns="http://www.w3.org/2000/svg" viewBox="0 0 400 300" width="406" height="306" class="illustration"><polygon points="281.68 221.49 279.2 229.55 283.3 231.83 286.48 224.16 281.68 221.49" fill="#f4a28c"></polygon><path d="M259.77,132.74c5.68-7,17-5.69,20.64,2.52a23.32,23.32,0,0,1,1.86,8.63c.76,17.79,10,27.49,18.38,24.43s12.51-17.94,12.51-17.94,6.9-4.91,8.43,0-4.85,5-4.85,5-8.19,48.11-43.92,17.33C250.23,153.2,254,139.89,259.77,132.74Z" fill="#f4a28c"></path><path d="M259.77,132.74c5.68-7,17-5.69,20.64,2.52a23.32,23.32,0,0,1,1.86,8.63c.76,17.79,10,27.49,18.38,24.43s12.51-17.94,12.51-17.94,6.9-4.91,8.43,0-4.85,5-4.85,5-8.19,48.11-43.92,17.33C250.23,153.2,254,139.89,259.77,132.74Z" opacity="0.08"></path><ellipse cx="198.94" cy="248.82" rx="134.98" ry="8.99" fill="#e6e6e6" opacity="0.3"></ellipse><rect x="104.83" y="52.4" width="116.43" height="193.53" fill="#c1c1c1"></rect><rect x="113.34" y="52.4" width="116.43" height="193.53" fill="#e6e6e6"></rect><path d="M81.54,238.69s-6.43-1.76-7.83-7.74c0,0,10-2,10.25,8.27Z" fill="#3C5D95" opacity="0.58"></path><path d="M82.33,238.05s-4.5-7.1-.54-13.75c0,0,7.58,4.82,4.21,13.77Z" fill="#3C5D95" opacity="0.73"></path><path d="M83.48,238.06s2.38-7.51,9.56-8.93c0,0,1.34,4.88-4.65,9Z" fill="#3C5D95"></path><polygon points="78.82 237.89 80.12 246.81 88.33 246.84 89.55 237.93 78.82 237.89" fill="#24285b"></polygon><rect x="124.23" y="66.02" width="94.98" height="155.23" fill="#fff"></rect><path d="M205.94,164.67s-2.69,3.26-.33,5.84,11.69,3.56,4.31,13.88l-8.07-2.45-15.09,25.87,23.16,7.49-1.09,6h20.94v-42L212.4,163.38Z" opacity="0.08"></path><polygon points="208.48 179.25 229.27 186.66 223.88 212.67 197.31 203.2 208.48 179.25" fill="#ffd200"></polygon><polygon points="208.48 179.25 229.27 186.66 223.88 212.67 197.31 203.2 208.48 179.25" opacity="0.04"></polygon><path d="M225.25,187.14s6.78-9.94.07-16.63" fill="none" stroke="#24285b" stroke-linecap="round" stroke-linejoin="round"></path><path d="M124.23,66V98h11.88a6.72,6.72,0,0,0,7.19,6.64h86.47V91.89L157.94,75.21Z" opacity="0.05"></path><polygon points="213.31 184.39 235.37 185.15 238.11 211.57 209.92 210.6 213.31 184.39" fill="#ffd200"></polygon><polygon points="124.23 66.02 138.61 89.17 150.48 89.17 136.19 66.02 124.23 66.02" fill="#3C5D95"></polygon><polygon points="136.11 66.02 150.48 89.17 162.35 89.17 148.06 66.02 136.11 66.02" fill="#3C5D95"></polygon><polygon points="147.92 66.02 162.29 89.17 174.17 89.17 159.87 66.02 147.92 66.02" fill="#3C5D95"></polygon><polygon points="159.79 66.02 174.17 89.17 186.04 89.17 171.74 66.02 159.79 66.02" fill="#3C5D95"></polygon><polygon points="171.66 66.02 186.04 89.17 197.91 89.17 183.62 66.02 171.66 66.02" fill="#3C5D95"></polygon><polygon points="183.53 66.02 197.91 89.17 209.78 89.17 195.49 66.02 183.53 66.02" fill="#3C5D95"></polygon><polygon points="195.35 66.02 209.72 89.17 221.6 89.17 207.3 66.02 195.35 66.02" fill="#3C5D95"></polygon><polygon points="207.22 66.02 221.6 89.17 233.47 89.17 219.17 66.02 207.22 66.02" fill="#3C5D95"></polygon><polygon points="136.11 66.02 150.48 89.17 162.35 89.17 148.06 66.02 136.11 66.02" fill="#fff" opacity="0.44"></polygon><polygon points="159.79 66.02 174.17 89.17 186.04 89.17 171.74 66.02 159.79 66.02" fill="#fff" opacity="0.44"></polygon><polygon points="183.53 66.02 197.91 89.17 209.78 89.17 195.49 66.02 183.53 66.02" fill="#fff" opacity="0.44"></polygon><polygon points="207.22 66.02 221.6 89.17 233.47 89.17 219.17 66.02 207.22 66.02" fill="#fff" opacity="0.44"></polygon><path d="M138.61,89.17h11.87a0,0,0,0,1,0,0V91.4a5.94,5.94,0,0,1-5.94,5.94h0a5.94,5.94,0,0,1-5.94-5.94V89.17A0,0,0,0,1,138.61,89.17Z" fill="#3C5D95"></path><path d="M150.48,89.17h11.87a0,0,0,0,1,0,0V91.4a5.94,5.94,0,0,1-5.94,5.94h0a5.94,5.94,0,0,1-5.94-5.94V89.17a0,0,0,0,1,0,0Z" fill="#3C5D95"></path><path d="M150.48,89.17h11.87a0,0,0,0,1,0,0V91.4a5.94,5.94,0,0,1-5.94,5.94h0a5.94,5.94,0,0,1-5.94-5.94V89.17a0,0,0,0,1,0,0Z" fill="#fff" opacity="0.44"></path><path d="M162.29,89.17h11.87a0,0,0,0,1,0,0V91.4a5.94,5.94,0,0,1-5.94,5.94h0a5.94,5.94,0,0,1-5.94-5.94V89.17a0,0,0,0,1,0,0Z" fill="#3C5D95"></path><path d="M174.17,89.17H186a0,0,0,0,1,0,0V91.4a5.94,5.94,0,0,1-5.94,5.94h0a5.94,5.94,0,0,1-5.94-5.94V89.17a0,0,0,0,1,0,0Z" fill="#3C5D95"></path><path d="M174.17,89.17H186a0,0,0,0,1,0,0V91.4a5.94,5.94,0,0,1-5.94,5.94h0a5.94,5.94,0,0,1-5.94-5.94V89.17a0,0,0,0,1,0,0Z" fill="#fff" opacity="0.44"></path><path d="M186,89.17h11.87a0,0,0,0,1,0,0V91.4A5.94,5.94,0,0,1,192,97.34h0A5.94,5.94,0,0,1,186,91.4V89.17a0,0,0,0,1,0,0Z" fill="#3C5D95"></path><path d="M197.91,89.17h11.87a0,0,0,0,1,0,0V91.4a5.94,5.94,0,0,1-5.94,5.94h0a5.94,5.94,0,0,1-5.94-5.94V89.17A0,0,0,0,1,197.91,89.17Z" fill="#3C5D95"></path><path d="M197.91,89.17h11.87a0,0,0,0,1,0,0V91.4a5.94,5.94,0,0,1-5.94,5.94h0a5.94,5.94,0,0,1-5.94-5.94V89.17A0,0,0,0,1,197.91,89.17Z" fill="#fff" opacity="0.44"></path><path d="M209.72,89.17H221.6a0,0,0,0,1,0,0V91.4a5.94,5.94,0,0,1-5.94,5.94h0a5.94,5.94,0,0,1-5.94-5.94V89.17a0,0,0,0,1,0,0Z" fill="#3C5D95"></path><path d="M221.6,89.17h11.87a0,0,0,0,1,0,0V91.4a5.94,5.94,0,0,1-5.94,5.94h0a5.94,5.94,0,0,1-5.94-5.94V89.17A0,0,0,0,1,221.6,89.17Z" fill="#3C5D95"></path><path d="M221.6,89.17h11.87a0,0,0,0,1,0,0V91.4a5.94,5.94,0,0,1-5.94,5.94h0a5.94,5.94,0,0,1-5.94-5.94V89.17A0,0,0,0,1,221.6,89.17Z" fill="#fff" opacity="0.44"></path><path d="M269.64,109.18a25.9,25.9,0,0,1,1.8,6.69,2.09,2.09,0,0,1-2,2.23,4.63,4.63,0,0,1-4.51-2.21l-2.31-3.09a3.73,3.73,0,0,1,.34-4.31C264.71,106.16,268.77,106.79,269.64,109.18Z" fill="#f4a28c"></path><polygon points="263.02 112.69 261.42 126.27 269.06 127.17 267.15 116.85 263.02 112.69" fill="#f4a28c"></polygon><path d="M270.54,111.66l1.6,1.17a.67.67,0,0,1-.08,1.12l-1.43.78Z" fill="#f4a28c"></path><path d="M267.32,117.72a4.82,4.82,0,0,1-2.08-.82s-.86,4.81,2.86,5.08Z" fill="#ce8172" opacity="0.31"></path><path d="M266,113.46s-.52-1.52-1.64-1-.36,2.69,1.26,2.39Z" fill="#f4a28c"></path><path d="M268.75,109.26a12.06,12.06,0,0,1-3.71,1.51s1,4.61-2,7.08c0,0-5.84-5.08-2.9-9.18,2.46-3.44,4.17-6.29,7.91-4.93A3.12,3.12,0,0,1,268.75,109.26Z" fill="#24285b"></path><circle cx="257.19" cy="107.74" r="4.15" fill="#24285b"></circle><path d="M266,113s-.88-1.65-2.14-.82-.41,2.83,1.63,2.92Z" fill="#f4a28c"></path><path d="M261.41,126.27l3.4.14A24,24,0,0,1,276,129.7c7.07,4.17,17.8,12.29,16.31,22.5-2.19,15.08-13.7,28.78-13.7,28.78l-28.23-1.09S226.65,125,261.41,126.27Z" fill="#3C5D95"></path><path d="M258.2,131.89s15.2,10.9,6.06,30.13,2.37,18.5,2.37,18.5l-16.22-.63-2.64-7Z" opacity="0.08"></path><path d="M250.41,179.89l5.48,53.72h14.65l-4.37-44.68,7.65,7.08a18.78,18.78,0,0,1,5,19.79l-2.13,6.29L292.48,229l2.55-14.2A24.52,24.52,0,0,0,290,195l-11.33-14Z" fill="#24285b"></path><path d="M231.68,186.83s3.45-11.53-5-15.87" fill="none" stroke="#24285b" stroke-linecap="round" stroke-linejoin="round"></path><path d="M260.57,137.15A9,9,0,0,0,245,131.93c-3.16,3.43-5.69,8.52-5.79,16-.24,19.57-10.1,30.71-22.61,14.75a7.16,7.16,0,0,0-5-2.77c-2.54-.22-5.62,0-5.92,2.15-.57,4.21,2.67,4.4,4.91,4a2.87,2.87,0,0,1,2.95,1.43C216,172,223,182.53,234,180.92,245.93,179.17,262.77,160.47,260.57,137.15Z" fill="#f4a28c"></path><rect x="300.06" y="129.07" width="34.89" height="21.06" fill="#ffd200"></rect><rect x="300.06" y="115.89" width="21.76" height="13.17" fill="#ffd200"></rect><rect x="300.06" y="115.89" width="21.76" height="13.17" fill="#fff" opacity="0.44"></rect><rect x="321.83" y="101.09" width="13.13" height="27.98" fill="#ffd200"></rect><rect x="321.83" y="101.09" width="13.13" height="27.98" opacity="0.04"></rect><rect x="299.96" y="138.85" width="35.25" height="0.93" fill="#24285b"></rect><circle cx="317.98" cy="139.15" r="1.84" fill="#fff"></circle><rect x="303.04" y="118.7" width="4.34" height="3.83" fill="#fff" opacity="0.29"></rect><rect x="328.74" y="103.59" width="4.34" height="3.83" fill="#fff" opacity="0.29"></rect><rect x="304.66" y="103.59" width="17.17" height="12.3" fill="#ffd200"></rect><polygon points="261.04 233.61 262.79 241.85 267.48 241.85 266.53 233.61 261.04 233.61" fill="#f4a28c"></polygon><path d="M262.79,241.85l.93,4.09,10.56-4.09S269.34,237.85,262.79,241.85Z" fill="#3C5D95"></path><path d="M279.68,228l-2.61,3.28,9.77,5.71S286.9,230.68,279.68,228Z" fill="#3C5D95"></path><path d="M217.38,186.83s-.45-15.79,8.88-16.69" fill="none" stroke="#24285b" stroke-linecap="round" stroke-linejoin="round"></path><path d="M211.62,182.81s4.36-15.18,13.52-13.21" fill="none" stroke="#24285b" stroke-linecap="round" stroke-linejoin="round"></path><rect x="151.49" y="121.2" width="48.51" height="48.51" rx="12.4" fill="#24285b"></rect><line x1="304.32" y1="112.57" x2="321.83" y2="112.57" fill="none" stroke="#24285b" stroke-miterlimit="10" stroke-width="0.75"></line><path d="M316.57,115.89v-12.3s-3.76-2.1-3.06-4.46,4.6.25,3.06,4.46c0,0,1.54-3.5,3.07-2.8s.45,2.8-2.81,2.8" fill="none" stroke="#24285b" stroke-miterlimit="10" stroke-width="0.75"></path><rect x="161.17" y="186.83" width="28.94" height="15.53" fill="#3C5D95"></rect><polyline points="165.92 143.9 174.45 155.04 186.76 134.68" fill="none" stroke="#fff" stroke-linecap="round" stroke-linejoin="round" stroke-width="5"></polyline><circle cx="173.57" cy="232.58" r="6.81" fill="#c1c1c1"></circle><line x1="153.6" y1="59.26" x2="192.23" y2="59.26" fill="none" stroke="#c1c1c1" stroke-miterlimit="10"></line></svg>