<svg id="Capa_1" enable-background="new 0 0 512 512" height="512" viewBox="0 0 512 512" width="512" xmlns="http://www.w3.org/2000/svg"><g><path d="m512 256c0 141.385-114.615 256-256 256-40.691 0-79.164-9.494-113.326-26.386-1.466-.725-119.9-123.877-120.927-126.2-13.981-31.624-21.747-66.612-21.747-103.414 0-141.385 114.615-256 256-256s256 114.615 256 256z" fill="#2b3894"/><path d="m466.94 241.221c0 111.247-90.183 201.43-201.43 201.43s-201.43-90.183-201.43-201.43 90.183-201.43 201.43-201.43 201.43 90.183 201.43 201.43z" fill="#3342ae"/><path d="m509.669 184.659-18.522 28.126c-1.365 2.073-2.161 4.469-2.306 6.947l-1.978 33.619c-.297 5.043-3.261 9.545-7.777 11.81l-30.103 15.097c-2.219 1.113-4.106 2.79-5.471 4.863l-18.522 28.126c-2.779 4.219-7.597 6.636-12.64 6.339l-33.619-1.978c-2.478-.146-4.951.363-7.169 1.476l-30.103 15.097c-4.516 2.265-9.897 1.948-14.116-.83l-28.126-18.522c-2.073-1.365-4.469-2.161-6.947-2.306l-33.619-1.978c-5.043-.297-9.545-3.261-11.81-7.777l-15.097-30.103c-1.113-2.219-2.79-4.106-4.863-5.471l-28.126-18.522c-4.219-2.779-6.636-7.597-6.339-12.64l1.978-33.619c.146-2.478-.363-4.951-1.476-7.169l-15.097-30.103c-2.265-4.516-1.948-9.897.83-14.116l18.522-28.126c1.365-2.073 2.161-4.469 2.306-6.947l1.978-33.619c.297-5.043 3.261-9.545 7.777-11.81l30.103-15.097c2.219-1.113 4.106-2.79 5.471-4.863l18.522-28.126c2.779-4.219 7.597-6.636 12.64-6.339l33.619 1.978c2.478.146 4.951-.363 7.169-1.476l30.103-15.1c4.516-2.265 9.897-1.948 14.116.83l28.126 18.522c2.073 1.365 4.469 2.161 6.947 2.306l33.619 1.978c5.043.297 9.545 3.261 11.81 7.777l15.097 30.103c1.113 2.219 2.79 4.106 4.863 5.471l28.126 18.522c4.219 2.779 6.636 7.597 6.339 12.64l-1.978 33.619c-.146 2.478.363 4.951 1.476 7.169l15.097 30.103c2.265 4.519 1.949 9.9-.83 14.119z" fill="#e9cc5a"/><path d="m457.907 167.841c0 62.821-50.927 113.748-113.748 113.748s-113.748-50.926-113.748-113.748 50.927-113.748 113.748-113.748 113.748 50.927 113.748 113.748z" fill="#eac23f"/><path d="m374.634 277.46c-9.699 2.69-19.919 4.128-30.475 4.128-62.821 0-113.748-50.926-113.748-113.747s50.927-113.748 113.748-113.748c10.556 0 20.776 1.438 30.475 4.128-48.023 13.321-83.273 57.354-83.273 109.619 0 52.266 35.25 96.298 83.273 109.62z" fill="#e1b91e"/><path d="m284.729 360.404c11.286.002 20.388 9.354 19.982 20.731-.386 10.837-9.622 19.269-20.466 19.269h-86.587l-53.627 53.627-93.338-93.338 93.814-93.813c15.19-15.19 27.688-32.85 36.963-52.226l28.226-58.969c2.385-4.982 8.356-7.087 13.337-4.703 13.948 6.676 19.844 23.396 13.167 37.345l-24.927 52.077h72.972c10.844 0 20.08 8.432 20.466 19.269.406 11.377-8.696 20.729-19.982 20.731 11.044.002 19.995 8.956 19.995 20 0 11.042-8.949 19.995-19.99 20 11.041.005 19.99 8.958 19.99 20 .001 11.044-8.951 19.997-19.995 20z" fill="#e09380"/><path d="m64.76 374.76-14.067-14.067 93.814-93.813c15.19-15.19 27.688-32.85 36.963-52.226l23.829-49.783 8.68.512c2.385-4.982 10.587-13.624 11.314-13.191 2.44 1.452 4.589 3.232 6.418 5.254l-30.371 63.452c-10.503 21.941-24.656 41.939-41.857 59.141zm239.965-34.356h-55.457c-5.523 0-10 4.477-10 10s4.477 10 10 10h35.471c11.039-.008 19.986-8.959 19.986-20zm-55.457 40c-5.523 0-10 4.477-10 10s4.477 10 10 10h34.988c10.839-.005 20.07-8.435 20.456-19.269.009-.245.013-.489.013-.731zm-10-110c0 5.523 4.477 10 10 10h35.461c11.044-.002 19.995-8.956 19.995-20h-55.457c-5.522 0-9.999 4.477-9.999 10zm0 40c0 5.523 4.477 10 10 10h35.466c11.041-.005 19.99-8.958 19.99-20h-55.457c-5.522 0-9.999 4.477-9.999 10z" fill="#d47f6c"/><path d="m211.843 172.906h-1.482c-4.13 0-6.845-4.31-5.062-8.035l4.397-9.186c2.354-4.919 8.245-7.101 13.179-4.778.835.393 1.641.823 2.418 1.285l-8.388 17.525c-.933 1.949-2.902 3.189-5.062 3.189z" fill="#b2705b"/><path d="m82.574 314.182c1.562-1.562 4.095-1.562 5.657 0l102.477 102.477c1.562 1.562 1.562 4.095 0 5.657l-25.838 25.838c-46.943-23.213-84.584-62.392-105.827-110.441z" fill="#93dcfc"/><path d="m73.699 365.419c-5.503-8.843-10.408-18.097-14.657-27.707l23.531-23.531c1.562-1.562 4.095-1.562 5.657 0l18.353 18.354z" fill="#72d1fb"/><path d="m44.823 336.339c3.891-3.891 10.2-3.891 14.091 0l109.472 109.472c3.891 3.891 3.891 10.2 0 14.091l-25.711 25.711c-53.642-26.525-96.653-71.293-120.928-126.199z" fill="#b4d2d7"/><path d="m80.722 358.147 87.664 87.664c3.891 3.891 3.891 10.2 0 14.091l-25.711 25.711c-41.215-20.381-76.155-51.531-101.142-89.775-10.345-15.833.615-36.863 19.524-37.269z" fill="#d5f1fe"/><path d="m80.722 358.147-38.595 38.595c-7.779-11.797-14.609-24.276-20.38-37.328l23.075-23.075c3.891-3.891 10.2-3.891 14.091 0z" fill="#b4e7fd"/><path d="m354.675 101.926v136.148c0 4.143-3.357 7.5-7.5 7.5s-7.5-3.357-7.5-7.5v-128.648h-21.601c-4.143 0-7.5-3.357-7.5-7.5s3.357-7.5 7.5-7.5h29.101c4.142 0 7.5 3.357 7.5 7.5zm-239.675 24.324h-8.75v-8.75c0-2.762-2.239-5-5-5s-5 2.238-5 5v8.75h-8.75c-2.761 0-5 2.239-5 5s2.239 5 5 5h8.75v8.75c0 2.761 2.239 5 5 5s5-2.239 5-5v-8.75h8.75c2.761 0 5-2.239 5-5s-2.239-5-5-5zm100-32.5h-8.75v-8.75c0-2.761-2.239-5-5-5s-5 2.239-5 5v8.75h-8.75c-2.761 0-5 2.239-5 5s2.239 5 5 5h8.75v8.75c0 2.761 2.239 5 5 5s5-2.239 5-5v-8.75h8.75c2.761 0 5-2.239 5-5s-2.239-5-5-5z" fill="#fff5f5"/></g></svg>